<svg xmlns="http://www.w3.org/2000/svg" width="60" height="60" viewBox="0 0 60 60" fill="none">
<path opacity="0.4" d="M37.5 56.875C36.825 56.875 36.2 56.5 35.875 55.925C35.55 55.35 35.55 54.625 35.9 54.05L38.525 49.675C39.05 48.775 40.2 48.5 41.1 49.025C42 49.55 42.275 50.7 41.75 51.6L41.075 52.7251C47.975 51.1001 53.15 44.9 53.15 37.5C53.15 36.475 54 35.625 55.025 35.625C56.05 35.625 56.9 36.475 56.9 37.5C56.875 48.175 48.175 56.875 37.5 56.875Z" fill="#F7C269"/>
<path opacity="0.4" d="M5 24.375C3.975 24.375 3.125 23.525 3.125 22.5C3.125 11.825 11.825 3.125 22.5 3.125C23.175 3.125 23.8 3.50001 24.125 4.07501C24.45 4.65001 24.45 5.37501 24.1 5.95001L21.475 10.325C20.95 11.225 19.8 11.5 18.9 10.975C18 10.45 17.725 9.29996 18.25 8.39996L18.925 7.27493C12.025 8.89993 6.85001 15.1 6.85001 22.5C6.87501 23.525 6.025 24.375 5 24.375Z" fill="#F7C269"/>
<path d="M26.6749 34.625L18.8249 30.4C17.9999 29.95 16.9999 29.95 16.1749 30.4L8.32489 34.625C7.74989 34.925 7.3999 35.55 7.3999 36.225C7.3999 36.9 7.74989 37.5251 8.32489 37.8251L16.1749 42.0501C16.5999 42.2751 17.0499 42.3751 17.4999 42.3751C17.9499 42.3751 18.3999 42.2751 18.8249 42.0501L26.6749 37.8251C27.2499 37.5251 27.5999 36.9 27.5999 36.225C27.5999 35.55 27.2249 34.95 26.6749 34.625Z" fill="#FCA40F"/>
<path d="M14.8751 43.525L7.57508 39.8751C7.02508 39.6001 6.37509 39.6251 5.82509 39.9501C5.30009 40.2751 4.9751 40.8502 4.9751 41.4752V48.375C4.9751 49.575 5.62507 50.65 6.70007 51.175L14.0001 54.8251C14.2501 54.9501 14.5251 55.0251 14.8001 55.0251C15.1251 55.0251 15.4501 54.9252 15.7501 54.7502C16.2751 54.4252 16.6001 53.85 16.6001 53.225V46.3252C16.6251 45.1252 15.9501 44.05 14.8751 43.525Z" fill="#FCA40F"/>
<path d="M29.15 39.9501C28.625 39.6251 27.975 39.6001 27.4 39.8751L20.1 43.525C19.025 44.05 18.375 45.1252 18.375 46.3252V53.225C18.375 53.85 18.7 54.4252 19.225 54.7502C19.525 54.9252 19.85 55.0251 20.175 55.0251C20.45 55.0251 20.725 54.9501 20.975 54.8251L28.275 51.175C29.35 50.65 30 49.575 30 48.375V41.4752C30 40.8502 29.675 40.2751 29.15 39.9501Z" fill="#FCA40F"/>
<path d="M51.6749 9.57496L43.8249 5.34995C42.9999 4.89995 41.9999 4.89995 41.1749 5.34995L33.3249 9.57496C32.7499 9.87496 32.3999 10.4998 32.3999 11.1748C32.3999 11.8498 32.7499 12.4749 33.3249 12.7749L41.1749 16.9999C41.5999 17.2249 42.0499 17.3249 42.4999 17.3249C42.9499 17.3249 43.3999 17.2249 43.8249 16.9999L51.6749 12.7749C52.2499 12.4749 52.5999 11.8498 52.5999 11.1748C52.5999 10.4748 52.2249 9.87496 51.6749 9.57496Z" fill="#FCA40F"/>
<path d="M39.8751 18.4502L32.5751 14.8001C32.0251 14.5251 31.3751 14.5502 30.8251 14.8752C30.3001 15.2002 29.9751 15.7752 29.9751 16.4002V23.3002C29.9751 24.5002 30.6251 25.5752 31.7001 26.1002L39.0001 29.7502C39.2501 29.8752 39.5251 29.9501 39.8001 29.9501C40.1251 29.9501 40.4501 29.8501 40.7501 29.6751C41.2751 29.3501 41.6001 28.7752 41.6001 28.1502V21.2502C41.6251 20.0502 40.9501 18.9752 39.8751 18.4502Z" fill="#FCA40F"/>
<path d="M54.15 14.8752C53.625 14.5502 52.975 14.5251 52.4 14.8001L45.1 18.4502C44.025 18.9752 43.375 20.0502 43.375 21.2502V28.1502C43.375 28.7752 43.7 29.3501 44.225 29.6751C44.525 29.8501 44.85 29.9501 45.175 29.9501C45.45 29.9501 45.725 29.8752 45.975 29.7502L53.275 26.1002C54.35 25.5752 55 24.5002 55 23.3002V16.4002C55 15.7752 54.675 15.2002 54.15 14.8752Z" fill="#FCA40F"/>
</svg>