<svg xmlns="http://www.w3.org/2000/svg" width="75" height="75" viewBox="0 0 75 75" fill="none">
<path d="M65.752 22.4688L37.502 38.8125L9.25195 22.4688C10.502 20.1562 12.3145 18.125 14.3457 17L31.0332 7.75C34.5957 5.75 40.4082 5.75 43.9707 7.75L60.6582 17C62.6895 18.125 64.502 20.1562 65.752 22.4688Z" fill="#F5D296"/>
<path d="M37.502 38.8125V68.75C35.1582 68.75 32.8145 68.25 31.0332 67.25L14.3457 58C10.5645 55.9062 7.4707 50.6562 7.4707 46.3438V28.6562C7.4707 26.6562 8.1582 24.4688 9.25195 22.4688L37.502 38.8125Z" fill="#F7C269"/>
<path d="M67.5332 28.6562V46.3438C67.5332 50.6562 64.4395 55.9062 60.6582 58L43.9707 67.25C42.1895 68.25 39.8457 68.75 37.502 68.75V38.8125L65.752 22.4688C66.8457 24.4688 67.5332 26.6562 67.5332 28.6562Z" fill="#FCA40F"/>
</svg>