<svg xmlns="http://www.w3.org/2000/svg" width="50" height="50" viewBox="0 0 50 50" fill="none">
<path d="M27.0832 45.8333H10.4165C6.24984 45.8333 4.1665 43.75 4.1665 39.5833V22.9166C4.1665 18.75 6.24984 16.6666 10.4165 16.6666H20.8332V39.5833C20.8332 43.75 22.9165 45.8333 27.0832 45.8333Z" stroke="#FCA40F" stroke-width="3" stroke-miterlimit="10" stroke-linecap="round" stroke-linejoin="round"/>
<path d="M21.0623 8.33337C20.8956 8.95837 20.8332 9.64587 20.8332 10.4167V16.6667H10.4165V12.5C10.4165 10.2084 12.2915 8.33337 14.5832 8.33337H21.0623Z" stroke="#FCA40F" stroke-width="3" stroke-miterlimit="10" stroke-linecap="round" stroke-linejoin="round"/>
<path d="M29.1665 16.6666V27.0833" stroke="#FCA40F" stroke-width="3" stroke-miterlimit="10" stroke-linecap="round" stroke-linejoin="round"/>
<path d="M37.5 16.6666V27.0833" stroke="#FCA40F" stroke-width="3" stroke-miterlimit="10" stroke-linecap="round" stroke-linejoin="round"/>
<path d="M35.4165 35.4166H31.2498C30.104 35.4166 29.1665 36.3541 29.1665 37.5V45.8333H37.4998V37.5C37.4998 36.3541 36.5623 35.4166 35.4165 35.4166Z" stroke="#FCA40F" stroke-width="3" stroke-miterlimit="10" stroke-linecap="round" stroke-linejoin="round"/>
<path d="M12.5 27.0834V35.4167" stroke="#FCA40F" stroke-width="3" stroke-miterlimit="10" stroke-linecap="round" stroke-linejoin="round"/>
<path d="M20.8335 39.5833V10.4166C20.8335 6.24996 22.9168 4.16663 27.0835 4.16663H39.5835C43.7502 4.16663 45.8335 6.24996 45.8335 10.4166V39.5833C45.8335 43.75 43.7502 45.8333 39.5835 45.8333H27.0835C22.9168 45.8333 20.8335 43.75 20.8335 39.5833Z" stroke="#FCA40F" stroke-width="3" stroke-miterlimit="10" stroke-linecap="round" stroke-linejoin="round"/>
</svg>