<svg width="92" height="89" viewBox="0 0 92 89" fill="none" xmlns="http://www.w3.org/2000/svg">
<path d="M74.1258 6.13006C81.7365 12.4331 80.6617 23.806 83.7475 33.0819C86.7354 42.0635 92.8682 50.1523 91.8968 59.5496C90.8089 70.0742 87.6383 82.3867 78.1299 87.4255C68.6324 92.4587 57.5733 83.8496 46.7789 83.4594C36.9972 83.1058 26.2545 90.6874 18.1913 85.2587C10.1294 79.8309 12.8356 67.5694 9.70505 58.4988C6.6299 49.5888 -0.564555 42.0393 0.035339 32.6536C0.717208 21.9853 4.33949 10.4187 13.1797 4.13569C21.9724 -2.11355 33.9451 0.477241 44.8075 0.832698C54.9892 1.16588 66.3507 -0.309097 74.1258 6.13006Z" fill="#FCA40F"/>
</svg>