<svg width="50" height="68" viewBox="0 0 50 68" fill="none" xmlns="http://www.w3.org/2000/svg">
<path d="M60.691 27.5503C61.4847 33.7701 56.0513 38.6681 53.4569 44.3555C50.9449 49.8624 50.2785 56.2922 45.7503 60.3037C40.6788 64.7965 33.866 69.2418 27.2707 67.5538C20.6829 65.8678 19.2908 57.0887 14.4551 52.2941C10.073 47.9492 1.80206 46.9317 0.419069 40.9304C-0.963693 34.9301 5.61181 30.3104 8.09628 24.7006C10.5368 19.1901 10.4769 12.5609 14.8278 8.39616C19.7733 3.66226 26.472 -0.2388 33.2974 0.577763C40.0861 1.38994 44.5133 7.72443 49.3956 12.5317C53.972 17.0378 59.88 21.1961 60.691 27.5503Z" fill="#FCA40F"/>
</svg>