<svg width="44" height="57" viewBox="0 0 44 57" fill="none" xmlns="http://www.w3.org/2000/svg">
<path d="M32.7315 3.926C37.5295 7.96278 36.8519 15.2465 38.7973 21.1873C40.681 26.9395 44.5474 32.12 43.935 38.1385C43.2491 44.879 41.2502 52.7645 35.2558 55.9916C29.2683 59.2151 22.2962 53.7014 15.4911 53.4515C9.3243 53.225 2.55177 58.0807 -2.53157 54.6039C-7.61407 51.1276 -5.90796 43.2748 -7.8816 37.4655C-9.82028 31.7591 -14.3559 26.924 -13.9777 20.913C-13.5478 14.0805 -11.2642 6.67264 -5.69106 2.6487C-0.147823 -1.35362 7.40018 0.305649 14.2482 0.533301C20.6671 0.746687 27.8298 -0.197961 32.7315 3.926Z" fill="#FCA40F"/>
</svg>