<svg xmlns="http://www.w3.org/2000/svg" width="119" height="119" viewBox="0 0 119 119" fill="none">
<path opacity="0.4" d="M109.083 38.7245V80.2754C109.083 94.2083 102.687 103.778 91.4315 107.397C88.159 108.538 84.3907 109.083 80.2753 109.083H38.7244C34.609 109.083 30.8407 108.538 27.5682 107.397C16.3127 103.778 9.9165 94.2083 9.9165 80.2754V38.7245C9.9165 20.6762 20.6761 9.91663 38.7244 9.91663H80.2753C98.3236 9.91663 109.083 20.6762 109.083 38.7245Z" fill="#13213C"/>
<path d="M91.4317 107.397C88.1592 108.538 84.3909 109.083 80.2755 109.083H38.7246C34.6092 109.083 30.8409 108.538 27.5684 107.397C29.3038 94.3074 42.9888 84.1428 59.5 84.1428C76.0113 84.1428 89.6963 94.3074 91.4317 107.397Z" fill="#13213C"/>
<path d="M77.2507 57.4175C77.2507 67.235 69.3174 75.2178 59.4999 75.2178C49.6824 75.2178 41.749 67.235 41.749 57.4175C41.749 47.6 49.6824 39.6666 59.4999 39.6666C69.3174 39.6666 77.2507 47.6 77.2507 57.4175Z" fill="#13213C"/>
</svg>