<svg xmlns="http://www.w3.org/2000/svg" width="55" height="55" viewBox="0 0 75 75" fill="none">
<path d="M65.875 26.8126V48.1875C65.875 51.6875 64 54.9376 60.9688 56.7189L42.4063 67.4376C39.375 69.1876 35.625 69.1876 32.5625 67.4376L14 56.7189C10.9688 54.9689 9.09375 51.7188 9.09375 48.1875V26.8126C9.09375 23.3126 10.9688 20.0625 14 18.2812L32.5625 7.5625C35.5938 5.8125 39.3438 5.8125 42.4063 7.5625L60.9688 18.2812C64 20.0625 65.875 23.2814 65.875 26.8126Z" fill="#E6E6E6"/>
<path d="M37.5 37.5C41.5213 37.5 44.7812 34.2401 44.7812 30.2187C44.7812 26.1974 41.5213 22.9376 37.5 22.9376C33.4787 22.9376 30.2188 26.1974 30.2188 30.2187C30.2188 34.2401 33.4787 37.5 37.5 37.5Z" fill="#FCA40F"/>
<path d="M45.8751 52.0625C48.4064 52.0625 49.8751 49.2501 48.4689 47.1564C46.3439 44.0001 42.2189 41.8751 37.5001 41.8751C32.7814 41.8751 28.6564 44.0001 26.5314 47.1564C25.1251 49.2501 26.5939 52.0625 29.1251 52.0625H45.8751Z" fill="#FCA40F"/>
</svg>