<svg xmlns="http://www.w3.org/2000/svg" width="50" height="50" viewBox="0 0 50 50" fill="none">
<path d="M37.5 39.2916H35.9166C34.25 39.2916 32.6667 39.9374 31.5 41.1041L27.9374 44.6249C26.3124 46.2291 23.6667 46.2291 22.0417 44.6249L18.4792 41.1041C17.3125 39.9374 15.7083 39.2916 14.0625 39.2916H12.5C9.04167 39.2916 6.25 36.5208 6.25 33.1042V10.3749C6.25 6.95827 9.04167 4.1875 12.5 4.1875H37.5C40.9583 4.1875 43.75 6.95827 43.75 10.3749V33.1042C43.75 36.5 40.9583 39.2916 37.5 39.2916Z" stroke="#FCA40F" stroke-width="3" stroke-miterlimit="10" stroke-linecap="round" stroke-linejoin="round"/>
<path d="M24.9997 20.8333C27.6806 20.8333 29.8539 18.66 29.8539 15.9791C29.8539 13.2982 27.6806 11.125 24.9997 11.125C22.3188 11.125 20.1455 13.2982 20.1455 15.9791C20.1455 18.66 22.3188 20.8333 24.9997 20.8333Z" stroke="#FCA40F" stroke-width="3" stroke-linecap="round" stroke-linejoin="round"/>
<path d="M33.3332 32.6249C33.3332 28.8749 29.604 25.8334 24.9998 25.8334C20.3957 25.8334 16.6665 28.8749 16.6665 32.6249" stroke="#FCA40F" stroke-width="3" stroke-linecap="round" stroke-linejoin="round"/>
</svg>